<?xml version="1.0" encoding="iso-8859-1"?>
<!-- Uploaded to: SVG Repo, www.svgrepo.com, Generator: SVG Repo Mixer Tools -->
<!DOCTYPE svg PUBLIC "-//W3C//DTD SVG 1.1//EN" "http://www.w3.org/Graphics/SVG/1.1/DTD/svg11.dtd">
<svg fill="#000000" height="800px" width="800px" version="1.1" id="Capa_1" xmlns="http://www.w3.org/2000/svg" xmlns:xlink="http://www.w3.org/1999/xlink" 
	 viewBox="0 0 297 297" xml:space="preserve">
<g>
	<path d="M294.061,101.395c-1.851-1.849-4.359-2.887-6.976-2.887l-88.617,0.012l0.013-88.655c0-2.617-1.038-5.126-2.888-6.977
		C193.742,1.038,191.233,0,188.616,0l-80.188,0.012c-5.445,0.002-9.859,4.415-9.86,9.86l-0.016,88.662L9.926,98.548
		c-5.446,0-9.86,4.415-9.861,9.86L0.051,188.63c0,2.618,1.038,5.126,2.889,6.977c1.85,1.85,4.359,2.888,6.976,2.888l88.621-0.012
		l-0.014,88.653c0,2.617,1.04,5.126,2.889,6.977c1.851,1.85,4.36,2.89,6.977,2.888l80.187-0.016c5.445,0,9.859-4.415,9.86-9.86
		l0.014-88.658l88.629-0.016c5.445,0,9.859-4.415,9.86-9.86l0.012-80.22C296.949,105.754,295.911,103.246,294.061,101.395z"/>
</g>
</svg>