<svg xmlns="http://www.w3.org/2000/svg" stroke="#000" stroke-linecap="square" stroke-miterlimit="10" color-interpolation="auto" font-family="Dialog" font-size="12" viewBox="0 0 262.406 262.828">
  <path stroke="none" d="M262.406 58.922q0 14.062-5.203 21.375-5.203 7.312-18.562 10.969-4.22 1.125-4.078 1.125 1.687 0-11.954-1.828l-36.843 38.953q4.922 12.656 4.922 27.562 0 8.578-7.172 17.719-7.594 9.703-15.75 9.703-14.907 0-22.641-2.812-.703-.282-10.547-5.907-4.781-2.672-13.922-8.437-19.125 17.719-57.234 53.015-45.984 42.47-58.219 42.47-.844 0-3.031-1.97Q0 258.891 0 258.188q0-12.375 45-61.454l50.063-54.562q-10.266-16.875-12.516-21.938-4.219-10.265-4.219-25.03 0-2.25 2.953-7.454 9-15.89 25.875-15.89 7.313 0 11.39.562 1.688.281 7.938 2.25 6.266 1.969 6.407 1.969 2.53 0 20.734-17.297 18.219-17.297 18.219-19.828 0-2.11-.64-6.328-.626-4.22-.626-6.329 0 .141.985-3.937Q177.047 0 203.906 0q16.313 0 37.407 21.234 21.093 21.235 21.093 37.688zm-9.984.562q0-12.234-5.484-19.546-22.641-29.954-45.422-29.954-8.86 0-15.188 5.344-6.75 5.625-6.75 14.203 0 1.407.281 3.938.282 2.531.282 3.656 6.187-4.5 8.156-4.5 9.984 0 15.047 2.953 6.469 3.797 15.75 13.64 10.547 11.25 10.547 16.735V76.36q0 .563-4.36 6.329h11.953q4.782 0 9.985-5.625 5.203-5.625 5.203-17.579zm-27.703 11.672q0-7.172-6.75-16.312-8.578-11.531-20.11-15.188-4.921-1.547-6.468-1.547-.985 0-5.422 1.688-4.422 1.687-5.406 2.39-2.11 1.547-12.235 11.813-9.562 10.125-28.969 30.375 6.047 3.938 17.579 12.516 2.53 2.53 8.015 7.312l47.25-47.25q5.485 7.172 5.485 16.594 0 3.937-2.25 7.031-1.407 1.828-13.36 14-11.953 12.156-25.453 25.375.422 2.11 2.39 3.094 9.563-9.14 28.407-27.563 4.5-4.218 12.797-13.218 4.5-5.766 4.5-11.11zm-43.735 81.282q0-3.516-2.53-13.922-.423-2.25-1.688-6.61-9.985-23.625-36.703-40.5-2.813-2.11-8.86-5.343-11.953-4.22-22.078-4.22-6.187 0-8.297.704-3.656 1.125-8.297 6.89-4.64 5.766-4.64 9.422 0 20.532 16.593 37.829 3.657-3.235 7.032-7.594 4.64-5.766 5.765-6.75 2.953-2.39 8.438-2.39 6.328 0 11.734 5.28 5.422 5.266 5.422 11.594 0 5.766-6.469 11.953l-10.687 9.563q10.687 8.86 17.156 11.953 8.719 4.219 20.531 4.219 3.938 0 9.625-4.422 5.703-4.438 6.828-8.156 1.125-3.735 1.125-9.5zm-43.453-18.844q0-1.547-8.437-8.719-2.672.984-17.438 15.75L51.61 200.672q-6.046 5.906-17.718 18-2.25 2.39-10.125 13.219Q13.5 245.953 6.188 257.063q13.359-8.72 38.39-28.125 15.89-14.625 39.797-39.235 31.36-32.344 39.094-39.937 14.062-13.922 14.062-16.172ZM249.75 60.609q0 6.47-7.312 14.625-.844 0-2.532.5-1.687.485-2.672.485-.14 0-2.25-1.547.704-6.188.704-7.172 0-3.234-5.625-11.672 6.609 1.969 7.593 1.969 1.688 0 5.063-2.172 3.375-2.187 4.219-3.594 2.812 8.297 2.812 8.578zm-115.734 74.25q-26.157 27.282-56.11 57.516-11.25 11.672-34.593 34.313-.422.421-26.579 19.828l114.891-115.594q1.969 2.39 2.39 3.937z"/>
</svg>
