<svg height="800" width="800" xmlns="http://www.w3.org/2000/svg" viewBox="0 0 466.96 466.96" xml:space="preserve"><path d="m310.597 170.701 44.245 15.889a8.983 8.983 0 0 0 3.042.532 9.006 9.006 0 0 0 8.471-5.96l10.694-29.78a8.998 8.998 0 0 0-5.428-11.512l-44.245-15.889c-4.68-1.683-9.833.751-11.512 5.428l-10.694 29.78a8.998 8.998 0 0 0 5.427 11.512zm19.165-26.738 27.304 9.805-4.611 12.839-27.304-9.805 4.611-12.839z"/><circle cx="110.073" cy="397.876" r="9.436"/><path d="m307.478 248.329 2.505-2.505a127.77 127.77 0 0 1 41.003-27.559l58.987-24.811s16.019-6.908 19.598-8.936c4.795-2.717 9.546-6.458 14.526-11.439 29.145-29.145 30.608-76.139 3.332-106.987a9 9 0 0 0-15.18 2.83l-21.495 57.906-16.041-5.938 22.604-61.516a9 9 0 0 0-9.698-12.016 77.981 77.981 0 0 0-63.882 54.662l-37.125-13.743a9.001 9.001 0 0 0-11.974 6.805l-8.543 46.231c-3.997 21.634-13.356 41.589-27.243 58.383l-79.013-79.005 5.618-5.618a9 9 0 0 0 0-12.728l-5.937-5.937c18.098-22.217 41.25-23.313 58.085-19.976a9 9 0 0 0 8.757-14.475c-7.947-9.863-17.833-17.551-29.379-22.847-27.911-12.823-60.836-8.599-84.6 10.161l-4.914-4.914a9 9 0 0 0-12.728 0l-54.649 54.65a8.999 8.999 0 0 0-.063 12.664c3.116 3.179 1.64 10.176-3.158 14.974s-11.795 6.274-14.974 3.158a8.999 8.999 0 0 0-12.664.063L2.636 156.462a9 9 0 0 0 0 12.728l57.988 57.988c1.757 1.757 4.061 2.636 6.364 2.636s4.606-.879 6.364-2.636l26.597-26.597a9 9 0 0 0 .091-12.636c-3.093-3.183-1.608-10.171 3.177-14.956 4.784-4.784 11.772-6.27 14.955-3.177a9 9 0 0 0 12.636-.09l4.969-4.969 79.433 79.433L84.705 374.689c-6.438 6.438-9.984 14.998-9.984 24.104 0 9.105 3.546 17.665 9.984 24.103 6.645 6.646 15.374 9.968 24.104 9.968 8.729 0 17.458-3.323 24.103-9.968l130.503-130.503L403.61 432.588c1.757 1.757 4.061 2.636 6.364 2.636s4.606-.879 6.364-2.636l31.34-31.34a9 9 0 0 0 0-12.728l-140.2-140.191zm86.895-178.701-16.54 45.013-17.156-6.351a59.975 59.975 0 0 1 33.696-38.662zm-184.899-14.16a64.94 64.94 0 0 1 4.235 2.132c-18.285 2.306-34.32 11.162-46.96 26.036l-21.525-21.525c18.366-13.527 43.142-16.34 64.25-6.643zm-88.368 7.98 45.26 45.26-40.958 40.958-45.26-45.26 40.958-40.958zM66.988 208.086l-45.26-45.26 13.869-13.869 45.26 45.26-13.869 13.869zm23.5-47.825c-3.251 3.251-5.714 6.912-7.407 10.725l-24.205-24.204c3.81-1.694 7.469-4.158 10.721-7.41 3.636-3.636 6.303-7.776 7.989-12.072l24.978 24.978c-4.299 1.684-8.441 4.349-12.076 7.983zm58.015-8.236 18.608-18.608 79.437 79.429-18.612 18.612-79.433-79.433zm-28.319 258.143a15.982 15.982 0 0 1-11.376 4.712 15.978 15.978 0 0 1-11.375-4.712c-6.272-6.273-6.272-16.479 0-22.751L263.36 221.49c21.046-21.045 35.028-47.64 40.436-76.907l6.6-35.713 102.542 37.961c4.657 1.725 9.833-.652 11.562-5.309l18.515-49.879c10.851 22.482 6.816 50.247-11.646 68.709-3.817 3.817-7.309 6.599-10.674 8.506-2.09 1.185-18.849 8.487-18.849 8.487l-57.84 24.328a145.682 145.682 0 0 0-46.752 31.423l-177.07 177.072zm289.79 3.328L276.143 279.665l18.607-18.607 133.836 133.827-18.612 18.611z"/></svg>