<?xml version="1.0" encoding="UTF-8" standalone="no"?>
<svg
   width="550"
   height="550"
   viewBox="0 0 16.5 16.5"
   version="1.1"
   id="svg9"
   sodipodi:docname="fontup.svg"
   inkscape:version="1.1.2 (0a00cf5339, 2022-02-04)"
   xmlns:inkscape="http://www.inkscape.org/namespaces/inkscape"
   xmlns:sodipodi="http://sodipodi.sourceforge.net/DTD/sodipodi-0.dtd"
   xmlns="http://www.w3.org/2000/svg"
   xmlns:svg="http://www.w3.org/2000/svg"
   xmlns:rdf="http://www.w3.org/1999/02/22-rdf-syntax-ns#"
   xmlns:cc="http://creativecommons.org/ns#"
   xmlns:dc="http://purl.org/dc/elements/1.1/">
  <defs
     id="defs13" />
  <sodipodi:namedview
     id="namedview11"
     pagecolor="#ffffff"
     bordercolor="#666666"
     borderopacity="1.0"
     inkscape:pageshadow="2"
     inkscape:pageopacity="0.0"
     inkscape:pagecheckerboard="0"
     showgrid="false"
     inkscape:zoom="0.89875"
     inkscape:cx="114.04729"
     inkscape:cy="299.86092"
     inkscape:window-width="2490"
     inkscape:window-height="1503"
     inkscape:window-x="70"
     inkscape:window-y="30"
     inkscape:window-maximized="1"
     inkscape:current-layer="svg9" />
  <!-- Uploaded to: SVG Repo, www.svgrepo.com, Generator: SVG Repo Mixer Tools -->
  <title
     id="title2">ic_fluent_font_increase_24_regular</title>
  <desc
     id="desc4">Created with Sketch.</desc>
  <g
     id="ðŸ”-Product-Icons"
     stroke="none"
     stroke-width="1"
     fill="none"
     fill-rule="evenodd"
     transform="translate(-5.1884483,-2.7499128)">
    <g
       id="ic_fluent_font_increase_24_regular"
       fill="#212121"
       fill-rule="nonzero">
      <path
         d="m 12.590967,4.2763084 0.06237,0.091599 0.05062,0.1046748 5.367976,13.4999998 c 0.153048,0.384902 -0.03491,0.820996 -0.419809,0.974043 -0.352826,0.140294 -0.748669,-0.0059 -0.930078,-0.32777 L 16.678074,18.526816 15.077,14.499 H 8.927 L 7.3216769,18.527442 C 7.1810665,18.880143 6.802767,19.067139 6.4443273,18.977704 l -0.09707,-0.03133 C 5.9945565,18.805766 5.8075597,18.427466 5.8969948,18.069026 L 5.9283231,17.971956 11.310346,4.4719561 C 11.531952,3.9160911 12.25238,3.851007 12.590967,4.2763084 Z M 12.006,6.776 9.525,12.999 h 4.955 z m 5.677482,-3.7055777 c 0.20104,-0.094004 0.434012,-0.094004 0.635051,0 l 0.09756,0.054836 2.251008,1.4957984 0.08781,0.068112 c 0.271574,0.2447778 0.330172,0.6580099 0.121766,0.971638 -0.208406,0.313628 -0.612073,0.4196843 -0.942941,0.2641386 L 19.836927,5.8703788 18.001,4.6507176 16.165088,5.8703788 16.06828,5.9249446 C 15.737412,6.0804903 15.333745,5.974434 15.125339,5.660806 14.916932,5.3471779 14.975531,4.9339458 15.247104,4.689168 l 0.08781,-0.068112 2.251007,-1.4957984 z"
         id="ðŸŽ¨-Color" />
    </g>
  </g>
  <metadata
     id="metadata830">
    <rdf:RDF>
      <cc:Work
         rdf:about="">
        <dc:title>ic_fluent_font_increase_24_regular</dc:title>
      </cc:Work>
    </rdf:RDF>
  </metadata>
</svg>
