<svg xmlns="http://www.w3.org/2000/svg" width="800" height="800" viewBox="0 0 420.238 420.238" xml:space="preserve"><path d="M412.739 18.188C412.739 8.159 404.581 0 394.553 0H234.409c-10.027 0-18.186 8.159-18.186 18.188V85.75H25.042c-9.689 0-17.543 7.854-17.543 17.543v299.402c0 9.688 7.854 17.543 17.543 17.543h299.402c9.688 0 17.543-7.854 17.543-17.543v-81.037h52.565c10.027 0 18.187-8.159 18.187-18.188V113.583c0-.073 0-.146-.004-.22l.004-95.175zM306.901 385.152H42.585V120.836h173.639v65.655h-38.141a7.496 7.496 0 0 0-6.039 3.054l-43.908 59.651-21.49-15.816a7.503 7.503 0 0 0-11.9 5.21l-10.658 95.764a7.499 7.499 0 0 0 10.461 7.701l88.268-38.64a7.498 7.498 0 0 0 1.439-12.91l-21.488-15.817 33.266-45.195h20.191v73.979c0 10.028 8.158 18.188 18.186 18.188h72.492v63.493h-.002z"/></svg>
