<?xml version="1.0" encoding="utf-8"?>

<!-- Uploaded to: SVG Repo, www.svgrepo.com, Generator: SVG Repo Mixer Tools -->
<svg version="1.1" id="Icons" xmlns="http://www.w3.org/2000/svg" xmlns:xlink="http://www.w3.org/1999/xlink" 
	 viewBox="0 0 32 32" xml:space="preserve">
<style type="text/css">
	.st0{fill:none;stroke:#000000;stroke-width:2;stroke-linecap:round;stroke-linejoin:round;stroke-miterlimit:10;}
</style>
<path d="M29,15h-5.1c-0.1-1.2-0.5-2.4-1-3.5c1.9-1.5,3.1-3.7,3.1-6.1V5c0-0.6-0.4-1-1-1s-1,0.4-1,1v0.4c0,1.8-0.8,3.4-2.2,4.5
	c-0.5-0.7-1.2-1.2-1.9-1.7c0-0.1,0-0.1,0-0.2c0-2.2-1.8-4-4-4s-4,1.8-4,4c0,0.1,0,0.1,0,0.2c-0.7,0.5-1.3,1-1.9,1.7
	C8.8,8.8,8,7.2,8,5.4V5c0-0.6-0.4-1-1-1S6,4.4,6,5v0.4c0,2.4,1.1,4.7,3.1,6.1c-0.5,1-0.9,2.2-1,3.5H3c-0.6,0-1,0.4-1,1s0.4,1,1,1
	h5.1c0.1,1.2,0.5,2.4,1,3.5C7.1,21.9,6,24.2,6,26.6V27c0,0.6,0.4,1,1,1s1-0.4,1-1v-0.4c0-1.8,0.8-3.4,2.2-4.5
	c1.5,1.8,3.5,2.9,5.8,2.9s4.4-1.1,5.8-2.9c1.4,1.1,2.2,2.7,2.2,4.5V27c0,0.6,0.4,1,1,1s1-0.4,1-1v-0.4c0-2.4-1.1-4.7-3.1-6.1
	c0.5-1,0.9-2.2,1-3.5H29c0.6,0,1-0.4,1-1S29.6,15,29,15z"/>
</svg>