<?xml version="1.0" encoding="UTF-8" standalone="no"?>
<svg
   width="666.66663"
   height="777.16833"
   viewBox="0 0 19.999999 23.31505"
   fill="none"
   version="1.1"
   id="svg4"
   sodipodi:docname="send-to1.svg"
   inkscape:version="1.1.2 (0a00cf5339, 2022-02-04)"
   xmlns:inkscape="http://www.inkscape.org/namespaces/inkscape"
   xmlns:sodipodi="http://sodipodi.sourceforge.net/DTD/sodipodi-0.dtd"
   xmlns="http://www.w3.org/2000/svg"
   xmlns:svg="http://www.w3.org/2000/svg">
  <defs
     id="defs8" />
  <sodipodi:namedview
     id="namedview6"
     pagecolor="#ffffff"
     bordercolor="#666666"
     borderopacity="1.0"
     inkscape:pageshadow="2"
     inkscape:pageopacity="0.0"
     inkscape:pagecheckerboard="0"
     showgrid="false"
     inkscape:zoom="0.89875"
     inkscape:cx="333.24061"
     inkscape:cy="443.3936"
     inkscape:window-width="2490"
     inkscape:window-height="1503"
     inkscape:window-x="70"
     inkscape:window-y="30"
     inkscape:window-maximized="1"
     inkscape:current-layer="svg4" />
  <path
     fill-rule="evenodd"
     clip-rule="evenodd"
     d="m 16.314,0.4544888 a 1,1.0844154 0 0 1 -0.233,1.5127596 l -1.656,1.2828634 0.832,0.193026 A 6,6.5064926 0 0 1 20,9.8054031 v 0.4966619 a 1,1.0844154 0 1 1 -2,0 V 9.8054031 A 4,4.3376617 0 0 0 14.838,5.5642543 l -0.86,-0.1995324 0.89,1.6884348 a 1,1.0844154 0 1 1 -1.736,1.0757401 l -2,-3.795454 a 1,1.0844154 0 0 1 0.287,-1.4205842 l 3.5,-2.7110386 a 1,1.0844154 0 0 1 1.395,0.2526688 z M 4,12.470896 a 2,2.1688309 0 0 1 2,-2.168831 h 8 a 2,2.1688309 0 0 1 2,2.168831 v 8.675323 A 2,2.1688309 0 0 1 14,23.31505 H 6 A 2,2.1688309 0 0 1 4,21.146219 Z m 10,8.675323 V 12.470896 H 6 v 8.675323 z M 2,5.9644036 A 2,2.1688309 0 0 0 0,8.1332345 v 8.6753225 a 1,1.0844154 0 1 0 2,0 V 8.1332345 h 8 a 1,1.0844155 0 1 0 0,-2.1688309 z"
     fill="#000000"
     id="path2"
     style="stroke-width:1.04135" />
</svg>
