<?xml version="1.0" encoding="iso-8859-1"?>
<!-- Uploaded to: SVG Repo, www.svgrepo.com, Generator: SVG Repo Mixer Tools -->
<svg fill="#000000" height="800px" width="800px" version="1.1" id="Layer_1" xmlns="http://www.w3.org/2000/svg" xmlns:xlink="http://www.w3.org/1999/xlink" 
	 viewBox="0 0 512.857 512.857" xml:space="preserve">
<g>
	<g>
		<g>
			<path d="M282.917,358.115c-0.32-2.987-1.92-5.547-4.267-7.253s-5.227-2.347-8-1.813l-128.533,21.333
				c6.613-16,14.4-31.573,23.147-46.613l36.907-6.08c5.76-0.96,9.707-6.4,8.747-12.267c-0.427-2.347-1.493-4.48-3.2-6.08
				l-74.667-70.08c-2.453-2.24-5.76-3.307-9.067-2.773L8.997,245.582c-5.867,0.96-9.813,6.4-8.853,12.16
				c0.64,3.733,3.093,6.827,6.613,8.213l20.8,8.427c-5.547,9.28-10.667,23.573-7.787,43.093c3.2,21.76,32.533,66.027,73.493,126.08
				c7.253,10.667,14.4,21.013,20.8,30.72c1.067,1.92,2.347,3.733,3.733,5.44c0.427,0.427,0.96,0.853,1.493,1.173
				c0.427,1.6,1.067,2.987,2.133,4.267c5.76,6.72,30.827,26.667,48.213,26.667c1.067,0,2.133-0.107,3.307-0.213l119.147-19.84
				c5.76-0.96,9.6-6.293,8.853-12.053L282.917,358.115z M105.85,423.715c-27.733-40.64-62.4-92.267-64.96-109.76
				c-3.627-24.213,10.027-35.52,10.56-35.947c4.693-3.627,5.547-10.24,1.92-14.933c-0.96-1.28-2.24-2.347-3.733-3.093l72.533-12.053
				l55.04,51.733l-20.48,3.413c-3.093,0.533-5.867,2.347-7.467,5.12C119.184,359.182,108.197,396.835,105.85,423.715z
				 M169.637,490.382c-5.333,0-25.6-11.733-32-19.307c-0.533-0.427-1.067-0.853-1.6-1.28c-0.213-1.067-0.747-2.133-1.28-3.093
				l-1.707-2.56c-3.2-5.867-11.947-27.307,0.96-70.827l129.493-21.44l14.933,100.587L169.637,490.382z"/>
			<path d="M498.277,216.782l-82.24-95.573c-3.84-4.48-10.56-5.013-15.04-1.173c-0.32,0.213-0.533,0.533-0.747,0.747l-75.2,79.68
				c-3.84,4.053-3.84,10.347-0.107,14.507l83.093,91.627c-13.227,2.453-26.56,3.84-40,4.373l-4.267-24
				c-0.853-4.693-4.693-8.32-9.493-8.747c-4.8-0.427-9.173,2.347-10.987,6.827l-41.067,107.2c-1.387,3.52-0.747,7.573,1.707,10.56
				l82.24,101.867c3.733,4.587,10.453,5.333,15.04,1.6c2.987-2.453,4.48-6.293,3.84-10.133l-5.547-31.253
				c15.893-0.213,31.147-6.613,42.453-17.813c14.72-14.507,32.747-70.187,56.533-147.2c4.16-13.44,8.107-26.24,11.733-37.44
				c0.853-2.24,1.6-4.48,2.133-6.827C514.49,243.129,509.797,230.222,498.277,216.782z M426.81,431.715
				c-16.213,16-36.8,11.093-37.653,10.88c-5.653-1.493-11.52,1.92-13.013,7.573c-0.427,1.493-0.427,2.987-0.213,4.587l0.747,4.267
				l-52.48-64.96l25.6-66.773c1.92,3.307,5.547,5.227,9.28,5.227c57.067-0.747,93.013-13.76,115.627-28.907
				C459.237,353.422,438.01,420.622,426.81,431.715z M491.13,251.129l-1.493,4.587c-3.947,9.6-17.387,31.787-58.24,45.013
				l-84.16-92.8l60.267-63.893l74.56,86.613C488.784,238.542,491.984,245.689,491.13,251.129z"/>
			<path d="M59.664,185.102l103.36,32.64c1.067,0.32,2.133,0.533,3.2,0.533c4.8,0,9.067-3.2,10.24-7.893l30.08-110.613
				c10.773,13.76,20.8,28.16,29.867,43.093c-6.4,7.253-8.96,9.813-9.92,10.773c-4.907,3.2-6.4,9.813-3.2,14.72
				c1.387,2.133,3.52,3.733,5.973,4.48c1.173,0.32,2.347,0.533,3.52,0.64c1.067,0,2.133-0.213,3.093-0.64l113.28-18.987
				c3.947-0.64,7.253-3.52,8.427-7.36L393.85,30.115c1.707-5.653-1.493-11.627-7.147-13.333c-2.667-0.747-5.547-0.533-8,0.747
				L349.05,32.995c-7.253-14.4-20.16-25.28-35.733-29.76C281.85-6.258,151.61,17.742,125.584,22.649h-0.107l-0.747,0.213
				c-0.747,0.213-1.493,0.64-2.24,1.067c-2.027-0.747-4.16-0.747-6.187-0.213c-12.267,3.733-27.84,16.64-31.68,30.933l-32,117.44
				C51.13,177.635,54.224,183.289,59.664,185.102z M307.13,23.395c12.587,3.627,22.4,13.76,25.707,26.453
				c1.067,5.76,6.72,9.6,12.48,8.533c1.067-0.213,2.027-0.533,2.987-1.067l17.493-9.173l-26.667,85.547l-79.253,13.12
				c0.853-2.88,0.533-6.08-1.067-8.64c-34.773-58.347-65.067-87.68-88.107-102.187C232.677,25.635,292.09,18.809,307.13,23.395z
				 M105.21,59.982c1.6-5.867,10.347-13.867,17.387-16c0.64-0.213,1.28-0.64,1.813-0.96c1.6,0.533,3.307,0.747,5.013,0.533
				c1.067-0.107,24.107-1.707,60.907,36.907c-0.427,0.64-0.747,1.28-0.96,1.92l-30.293,111.36l-82.987-26.24L105.21,59.982z"/>
		</g>
	</g>
</g>
</svg>