<svg width="800" height="800" viewBox="0 0 16 16" xmlns="http://www.w3.org/2000/svg"><g fill="#2e3436"><path d="M8.168 3.008a2.945 2.945 0 0 0-1.3.222A3.002 3.002 0 0 0 5.015 6h2a1 1 0 1 1 1 1c-.551 0-1 .45-1 1v2h2V8.82a3.015 3.015 0 0 0 1.773-1.672 3.012 3.012 0 0 0-.652-3.27 2.99 2.99 0 0 0-1.969-.87zM8.016 11c-.551 0-1 .45-1 1s.449 1 1 1 1-.45 1-1-.45-1-1-1zm0 0"/><path d="M12 1a1 1 0 0 0-.707 1.707L12.586 4h-.941c.343.582.527 1.242.53 1.91l-.01.09h.42l-.46.457a3.818 3.818 0 0 1-.992 2.035.933.933 0 0 0 .16.215 1 1 0 0 0 1.414 0l3-3a1 1 0 0 0 0-1.414l-3-3A1 1 0 0 0 12 1zM4.426 4.184A.996.996 0 0 0 4 5c0 .105.02.203.05.3a3.77 3.77 0 0 1 .376-1.116zM4 7a.993.993 0 0 0-.707.293l-3 3a1 1 0 0 0 0 1.414l3 3a1 1 0 1 0 1.414-1.414L3.414 12H6v-2H3.414l1.293-1.293a.958.958 0 0 0 .219-.34 3.879 3.879 0 0 1-.754-1.351A.853.853 0 0 0 4 7zm6 3v2h1c.55 0 1-.45 1-1s-.45-1-1-1zm0 0" fill-opacity=".349"/></g></svg>
