<?xml version="1.0" encoding="UTF-8"?>
<svg xmlns="http://www.w3.org/2000/svg" id="Layer_1" data-name="Layer 1" viewBox="0 0 24 24" width="512" height="512"><path d="M24,12c0,5.337-3.506,9.861-8.334,11.414,.209-.451,.331-.948,.332-1.469v-.79c3.528-1.547,6.002-5.064,6.002-9.155,0-5.514-4.486-10-10-10S2,6.486,2,12c0,2.351,.82,4.51,2.182,6.219-.219,.926-.233,1.896-.028,2.831C1.615,18.853,0,15.616,0,12,0,5.383,5.383,0,12,0s12,5.383,12,12ZM7,9.5c0,.828,.672,1.5,1.5,1.5s1.5-.672,1.5-1.5-.672-1.5-1.5-1.5-1.5,.672-1.5,1.5Zm10,1c0-.828-.672-1.5-1.5-1.5s-1.5,.672-1.5,1.5,.672,1.5,1.5,1.5,1.5-.672,1.5-1.5Zm-5.012-3.95c-.047-.104-1.177-2.55-3.488-2.55-1.744,0-2.612,1.186-2.705,1.321l1.646,1.135s.358-.456,1.059-.456c1,0,1.661,1.364,1.668,1.377l1.82-.827Zm4.317,9.643l-2.302,.721-.005,5.029c0,.645-.414,1.218-1.026,1.422l-1.309,.436c-.43,.135-.865,.199-1.293,.199-.708,0-1.396-.175-2.009-.495-1.267-.662-2.208-1.945-2.324-3.587-.057-.809,.155-1.617,.531-2.336l1.659-3.172c.179-.341,.527-.537,.887-.537,.156,0,.315,.037,.463,.114,.489,.256,.679,.86,.423,1.349l-.482,.921,6.196-1.955c.099-.031,.198-.046,.297-.046,.422,0,.812,.271,.945,.695,.164,.522-.127,1.078-.649,1.242Z"/></svg>
