<svg xmlns="http://www.w3.org/2000/svg" stroke="#000" stroke-linecap="square" stroke-miterlimit="10" color-interpolation="auto" font-family="Dialog" font-size="12" viewBox="0 0 109.839 276.056">
  <path stroke="none" d="M89.158 9.998q9.53 9.76 10.227 17.923.698 8.163-4.668 16.153-.405.592-1.41 1.575-1.309 1.277-4.077 3.586-2.756 2.299-3.964 3.478.096.299.241 13.13l.441 29.639q8.904 3.885 16.469 11.632 2.26 2.315 3.728 4.222 4.112 5.419 3.647 14.717-.453 9.287-5.283 14.002-12.376 12.084-34.78 14.501l-3.147 63.607q-3.483 50.178-9.923 56.465-.905.884-5.287 1.428-6.161-8.725-7.622-27.935-1.372-18.314-2.817-63.877.129-10.738-1.33-30.147-2.678-.53-7.44-1.58-16.563-3.68-25.011-12.332l-3.242-3.32q-4.814-4.931-3.7-14.862.909-9.536 5.94-14.448 6.64-6.484 10.847-9.02.702-.488 4.399-1.935 3.198-1.354 3.701-1.846.705-.687 1.906-42.937-1.083-.908-4.63-3.734-2.954-2.422-4.526-4.032-2.063-2.113-3.93-8.544-1.857-6.442-1.323-9.518 1.278-7.145 11.642-17.264 1.308-1.277 8.802-4.27Q46.028-.76 62.227.13q18.187.913 26.93 9.868zm-2.077 7.334q-11.003-11.27-30.39-11.6Q37.303 5.4 26.134 16.306q-6.44 6.287-6.812 12.547-.486 7.354 3.345 11.278l8.154 8.351.211-.992.597 49.928q16.852-3.876 29.076-3.233l.642-53.692q4.183-.546 10.372 5.793 1.474 1.509 1.932 4.796.182 1.394.142 13.029-.229 10.837-.488 32.512 2.979.434 5.952 1.265 1.194-16.693.891-49.612-.525-5.973-3.964-9.495.099.1-2.47-1.322-17.783-9.76-34.192-1.403-3.402 1.75-3.704 2.044-.402.393-2.037 4.064-1.635 3.649-2.243 4.636.265-5.566 2.479-7.727 3.622-3.537 6.327-5.195 3.505-2.047 15.395-2.147 11.88-.113 15.735 1.823 2.57 1.224 5.321 4.041 2.85 2.918 3.417 5.312.561 2.99 1.022 6.078 7.429-5.878 7.831-6.271 5.232-5.109 4.132-12.878-.81-7.07-6.116-12.504zm11.881 95.907q-8.645-8.855-17.053-12.635-9.397-4.19-26.64-4.539-17.255-.36-26.65 3.505-8.293 3.381-16.645 11.535-2.817 2.751-3.835 4.728-1.629 3.162-.714 9.847.914 6.663 3.469 9.279 12.083 12.376 32.765 12.623-.226-6.069-.55-12.238.085-7.16 4.01-10.99 2.716-2.653 8.14-2.533 5.413.109 8.065 2.826 3.537 3.622 3.154 10.678l-.743 12.322q11.94-.653 18.232-2.865 7.59-2.694 15.237-10.16 3.823-3.733 3.706-10.585-.116-6.874-3.948-10.798zm-38.728 12.067q-.59-.604-4.967-.457-4.377.146-5.082.834-1.408 1.375-1.536 70.288-.688 16.003.125 47.834.688 8.959 5.54 27.414 6.315-45.868 5.93-71.827.586-24.158.17-72.493-.082-1.493-.18-1.593zM85.464 19.5q4.323 4.427 5.003 10.357.67 5.92-1.644 8.18l-5.232 5.108q-.454-3.685-3.892-7.207l-1.965-2.012q-4.617-4.729-18.631-5.394-13.218-.655-19.62 2.45-3.2 1.554-7.426 5.68-1.912 1.866-2.755 5.834l-1.08-1.107q-11.397-11.671-.128-22.674Q38.156 8.89 56.904 9.17q18.736.268 28.56 10.33zm-11.29 21.046q2.063 2.113 3.087 7.993.372 2.192-.145 12.13.55-12.722-3.674-17.049-5.698-5.836-15.232-6.944l-.045 53.7q-7.866.8-23.702 2.898l-.66-28.051q.152-20.98 4.478-25.205.906-.884 7-3.298 5.598-2.32 15.033-1.312 9.93 1.113 13.86 5.138zm23.073 74.76q1.474 1.509 1.962 2.21 1.661 2.507 1.043 8.024-.608 5.506-2.821 7.668-9.257 9.038-28.182 11.596.366-5.664.634-11.428-.022-6.464-3.854-10.389-3.831-3.924-10.594-3.894-6.762.008-10.686 3.839-3.622 3.537-3.799 9.998.23 5.671.562 11.244-16.312.203-26.823-10.563-6.877-7.043-3.392-15.753.615-1.583 3.232-4.138 5.835-5.698 16.245-11.341 3.203-1.752 14.751-2.807 27.476-2.456 41.388 6.76 4.44 2.936 10.334 8.974zM58.413 127.87q1.08 1.106.047 37.69.115 23.668.13 47.436-.137 28.041-4.738 46.88l1.195-133.24q2.678.53 3.366 1.234z"/>
</svg>
