<svg xmlns="http://www.w3.org/2000/svg" viewBox="0 0 1024 1024" fill="currentColor" overflow="hidden" xmlns:v="https://vecta.io/nano"><path d="M925.731 288.698l-6.902-6.343-18.236-16.891-56.046-51.397-4.077-3.682-58.996-52.076c-8.682-7.325-15.517-12.807-20.539-16.426-3.333-2.402-6.043-4.13-8.715-5.396-3.365-1.595-6.48-2.566-10.905-2.483A21.65 21.65 0 0 0 720 155.734v42.475 42.475 84.95V347h21.205H890v595H358.689C323.429 942 295 913.132 295 877.922V177h361.205c11.736 0 21.25-9.771 21.25-21.5s-9.514-21.5-21.25-21.5h-382.5H252v21.734V813h-52.421C166.646 813 140 786.928 140 754.678V72h566.286C739.29 72 766 98.154 766 130.404V134h40v-3.596C806 76.596 761.271 33 706.286 33H119.958 100v19.506 702.172C100 808.463 144.642 852 199.579 852H252v25.922C252 936.612 299.979 984 358.689 984h552.515H932v-21.237-637.128V304h.433c-.001-5-2.237-11.122-6.702-15.302zM762 304v-63.315-42.475-.273c14 11.479 30.3 26.369 49.711 43.942l4.157 3.665 55.779 50.926c2.878 2.666 5.713 5.531 8.391 7.531H762zm54.936 132H407.295c-10.996 0-19.91 8.727-19.91 19.5s8.914 19.5 19.91 19.5h409.641c11 0 19.914-8.73 19.914-19.5s-8.914-19.5-19.914-19.5zm0 117H407.295c-10.996 0-19.91 8.727-19.91 19.5s8.914 19.5 19.91 19.5h409.641c11 0 19.914-8.726 19.914-19.5s-8.914-19.5-19.914-19.5zm0 136H407.295c-10.996 0-19.91 8.729-19.91 19.503S396.299 728 407.295 728h409.641c11 0 19.914-8.729 19.914-19.497 0-10.774-8.914-19.503-19.914-19.503z"/></svg>