<?xml version="1.0" encoding="UTF-8" standalone="no"?>
<svg
   width="666.66663"
   height="777.16833"
   viewBox="0 0 19.999999 23.31505"
   fill="none"
   version="1.1"
   id="svg4"
   sodipodi:docname="sendtorun.svg"
   inkscape:version="1.1.2 (0a00cf5339, 2022-02-04)"
   xmlns:inkscape="http://www.inkscape.org/namespaces/inkscape"
   xmlns:sodipodi="http://sodipodi.sourceforge.net/DTD/sodipodi-0.dtd"
   xmlns="http://www.w3.org/2000/svg"
   xmlns:svg="http://www.w3.org/2000/svg">
  <sodipodi:namedview
     id="namedview38"
     pagecolor="#ffffff"
     bordercolor="#666666"
     borderopacity="1.0"
     inkscape:pageshadow="2"
     inkscape:pageopacity="0.0"
     inkscape:pagecheckerboard="0"
     showgrid="false"
     inkscape:zoom="1.850307"
     inkscape:cx="421.01122"
     inkscape:cy="579.63355"
     inkscape:window-width="2490"
     inkscape:window-height="1503"
     inkscape:window-x="70"
     inkscape:window-y="30"
     inkscape:window-maximized="1"
     inkscape:current-layer="svg4" />
  <defs
     id="defs8">
    <marker
       style="overflow:visible"
       id="TriangleOutL"
       refX="0.0"
       refY="0.0"
       orient="auto">
      <path
         transform="scale(0.8)"
         style="fill-rule:evenodd;fill:context-stroke;stroke:context-stroke;stroke-width:1.0pt"
         d="M 5.77,0.0 L -2.88,5.0 L -2.88,-5.0 L 5.77,0.0 z "
         id="path1272" />
    </marker>
    <marker
       style="overflow:visible"
       id="TriangleInL"
       refX="0.0"
       refY="0.0"
       orient="auto">
      <path
         transform="scale(-0.8)"
         style="fill-rule:evenodd;fill:context-stroke;stroke:context-stroke;stroke-width:1.0pt"
         d="M 5.77,0.0 L -2.88,5.0 L -2.88,-5.0 L 5.77,0.0 z "
         id="path1263" />
    </marker>
    <marker
       style="overflow:visible;"
       id="Arrow2Mend"
       refX="0.0"
       refY="0.0"
       orient="auto">
      <path
         transform="scale(0.6) rotate(180) translate(0,0)"
         d="M 8.7185878,4.0337352 L -2.2072895,0.016013256 L 8.7185884,-4.0017078 C 6.9730900,-1.6296469 6.9831476,1.6157441 8.7185878,4.0337352 z "
         style="stroke:context-stroke;fill-rule:evenodd;fill:context-stroke;stroke-width:0.62500000;stroke-linejoin:round;"
         id="path1157" />
    </marker>
    <marker
       style="overflow:visible;"
       id="Arrow2Lend"
       refX="0.0"
       refY="0.0"
       orient="auto">
      <path
         transform="scale(1.1) rotate(180) translate(1,0)"
         d="M 8.7185878,4.0337352 L -2.2072895,0.016013256 L 8.7185884,-4.0017078 C 6.9730900,-1.6296469 6.9831476,1.6157441 8.7185878,4.0337352 z "
         style="stroke:context-stroke;fill-rule:evenodd;fill:context-stroke;stroke-width:0.62500000;stroke-linejoin:round;"
         id="path1151" />
    </marker>
    <marker
       style="overflow:visible"
       id="Arrow2Lstart"
       refX="0.0"
       refY="0.0"
       orient="auto">
      <path
         transform="scale(1.1) translate(1,0)"
         d="M 8.7185878,4.0337352 L -2.2072895,0.016013256 L 8.7185884,-4.0017078 C 6.9730900,-1.6296469 6.9831476,1.6157441 8.7185878,4.0337352 z "
         style="stroke:context-stroke;fill-rule:evenodd;fill:context-stroke;stroke-width:0.62500000;stroke-linejoin:round"
         id="path1148" />
    </marker>
    <marker
       style="overflow:visible;"
       id="Arrow1Mend"
       refX="0.0"
       refY="0.0"
       orient="auto">
      <path
         transform="scale(0.4) rotate(180) translate(10,0)"
         style="fill-rule:evenodd;fill:context-stroke;stroke:context-stroke;stroke-width:1.0pt;"
         d="M 0.0,0.0 L 5.0,-5.0 L -12.5,0.0 L 5.0,5.0 L 0.0,0.0 z "
         id="path1139" />
    </marker>
    <marker
       style="overflow:visible"
       id="Arrow1Mstart"
       refX="0.0"
       refY="0.0"
       orient="auto">
      <path
         transform="scale(0.4) translate(10,0)"
         style="fill-rule:evenodd;fill:context-stroke;stroke:context-stroke;stroke-width:1.0pt"
         d="M 0.0,0.0 L 5.0,-5.0 L -12.5,0.0 L 5.0,5.0 L 0.0,0.0 z "
         id="path1136" />
    </marker>
    <marker
       style="overflow:visible"
       id="Tail"
       refX="0.0"
       refY="0.0"
       orient="auto">
      <g
         transform="scale(-1.2)"
         id="g1178">
        <path
           style="fill:none;fill-rule:evenodd;stroke:context-stroke;stroke-width:0.8;stroke-linecap:round"
           d="M -3.8048674,-3.9585227 L 0.54352094,0"
           id="path1166" />
        <path
           style="fill:none;fill-rule:evenodd;stroke:context-stroke;stroke-width:0.8;stroke-linecap:round"
           d="M -1.2866832,-3.9585227 L 3.0617053,0"
           id="path1168" />
        <path
           style="fill:none;fill-rule:evenodd;stroke:context-stroke;stroke-width:0.8;stroke-linecap:round"
           d="M 1.3053582,-3.9585227 L 5.6537466,0"
           id="path1170" />
        <path
           style="fill:none;fill-rule:evenodd;stroke:context-stroke;stroke-width:0.8;stroke-linecap:round"
           d="M -3.8048674,4.1775838 L 0.54352094,0.21974226"
           id="path1172" />
        <path
           style="fill:none;fill-rule:evenodd;stroke:context-stroke;stroke-width:0.8;stroke-linecap:round"
           d="M -1.2866832,4.1775838 L 3.0617053,0.21974226"
           id="path1174" />
        <path
           style="fill:none;fill-rule:evenodd;stroke:context-stroke;stroke-width:0.8;stroke-linecap:round"
           d="M 1.3053582,4.1775838 L 5.6537466,0.21974226"
           id="path1176" />
      </g>
    </marker>
  </defs>
  <g
     style="fill:none"
     id="g838"
     transform="matrix(0.85763343,0,0,0.85763343,-2.5786241,-2.4031243)">
    <path
       d="m 12,14.93 c -0.5795,0 -1.146,-0.1718 -1.6278,-0.4938 C 9.89035,14.1143 9.51481,13.6567 9.29304,13.1213 9.07128,12.5859 9.01325,11.9968 9.12631,11.4284 9.23936,10.86 9.51842,10.338 9.92819,9.92819 10.338,9.51842 10.86,9.23936 11.4284,9.12631 c 0.5684,-0.11306 1.1575,-0.05503 1.6929,0.16673 0.5354,0.22177 0.993,0.59731 1.3149,1.07916 0.322,0.4818 0.4938,1.0483 0.4938,1.6278 0,0.7771 -0.3087,1.5224 -0.8582,2.0718 C 13.5224,14.6213 12.7771,14.93 12,14.93 Z m 0,-4.36 c -0.2828,0 -0.5593,0.0839 -0.7945,0.241 -0.2351,0.1571 -0.4184,0.3805 -0.5266,0.6418 -0.1083,0.2613 -0.1366,0.5488 -0.0814,0.8262 0.0552,0.2774 0.1914,0.5322 0.3913,0.7322 0.2,0.2 0.4548,0.3362 0.7322,0.3913 0.2774,0.0552 0.5649,0.0269 0.8262,-0.0813 0.2613,-0.1083 0.4847,-0.2916 0.6418,-0.5267 C 13.3461,12.5593 13.43,12.2828 13.43,12 13.43,11.6207 13.2793,11.257 13.0112,10.9888 12.743,10.7207 12.3793,10.57 12,10.57 Z"
       fill="#000000"
       id="path826" />
    <path
       d="M 12.06,20.75 C 11.7676,20.7487 11.4784,20.6896 11.2089,20.5762 10.9394,20.4628 10.6949,20.2973 10.4896,20.0892 10.2842,19.881 10.122,19.6344 10.0123,19.3634 9.90252,19.0924 9.84737,18.8024 9.85001,18.51 9.84606,18.4198 9.81676,18.3326 9.76546,18.2583 9.71416,18.184 9.64295,18.1257 9.56001,18.09 9.46824,18.0479 9.36604,18.034 9.26634,18.05 9.16665,18.066 9.07396,18.1112 9.00001,18.18 8.58482,18.592 8.02493,18.8253 7.44001,18.83 6.8514,18.8338 6.28454,18.6077 5.86001,18.2 5.6538,17.9938 5.49022,17.7491 5.37861,17.4797 5.26701,17.2103 5.20956,16.9216 5.20956,16.63 c 0,-0.2916 0.05745,-0.5803 0.16905,-0.8497 C 5.49022,15.5109 5.6538,15.2662 5.86001,15.06 5.93053,14.9957 5.98119,14.9126 6.006,14.8205 6.0308,14.7283 6.02873,14.631 6.00001,14.54 5.95128,14.4556 5.88137,14.3854 5.79719,14.3363 5.71301,14.2872 5.61747,14.2609 5.52001,14.26 4.93163,14.2577 4.36714,14.027 3.94554,13.6166 3.52393,13.2062 3.27815,12.6481 3.26001,12.06 3.26132,11.7685 3.32004,11.48 3.43282,11.2112 3.5456,10.9424 3.71022,10.6984 3.9173,10.4931 4.12437,10.2879 4.36984,10.1255 4.63969,10.0152 4.90953,9.9048 5.19847,9.84868 5.49001,9.85 5.5802,9.84605 5.66746,9.81675 5.74175,9.76545 5.81604,9.71415 5.87436,9.64294 5.91001,9.56 5.95213,9.46823 5.96606,9.36603 5.95004,9.26633 5.93402,9.16664 5.88876,9.07395 5.82001,9 5.40797,8.58481 5.17468,8.02492 5.17001,7.44 5.1649,7.14801 5.21797,6.85792 5.32613,6.58665 5.4343,6.31538 5.59539,6.06836 5.80001,5.86 6.00616,5.65379 6.25092,5.49021 6.52031,5.3786 6.78969,5.267 7.07842,5.20955 7.37001,5.20955 7.6616,5.20955 7.95033,5.267 8.21971,5.3786 8.4891,5.49021 8.73385,5.65379 8.94001,5.86 9.01201,5.9285 9.10041,5.97735 9.19672,6.00187 9.29303,6.02638 9.39402,6.02574 9.49001,6 9.57752,5.95207 9.65169,5.88308 9.70582,5.79927 9.75995,5.71546 9.79232,5.61947 9.80001,5.52 9.79973,4.92989 10.0293,4.36287 10.4399,3.93912 10.8506,3.51537 11.4102,3.2682 12,3.25 c 0.2915,0.00261 0.5797,0.06263 0.8481,0.17662 0.2683,0.11398 0.5116,0.27971 0.7159,0.48772 0.2042,0.208 0.3656,0.45421 0.4747,0.72457 C 14.1478,4.90926 14.2026,5.19846 14.2,5.49 14.2038,5.5815 14.2317,5.67038 14.2809,5.74764 14.33,5.8249 14.3987,5.88781 14.48,5.93 14.5683,5.96241 14.6639,5.96927 14.7558,5.94982 14.8478,5.93036 14.9324,5.88537 15,5.82 15.4152,5.40796 15.9751,5.17467 16.56,5.17 16.8525,5.16083 17.1438,5.21204 17.4156,5.32044 17.6875,5.42883 17.9341,5.59208 18.14,5.8 c 0.2062,0.20615 0.3698,0.45091 0.4814,0.7203 0.1116,0.26938 0.1691,0.55811 0.1691,0.8497 0,0.29159 -0.0575,0.58032 -0.1691,0.8497 C 18.5098,8.48909 18.3462,8.73385 18.14,8.94 18.0767,9.01489 18.0333,9.10463 18.0141,9.20082 17.9949,9.29701 18.0003,9.3965 18.03,9.49 c 0.0479,0.08751 0.1169,0.16168 0.2007,0.21581 0.0838,0.05413 0.1798,0.0865 0.2793,0.09419 0.5849,0.00745 1.1444,0.2404 1.5617,0.6503 0.4173,0.4099 0.6603,0.965 0.6783,1.5497 -0.0026,0.2915 -0.0626,0.5797 -0.1766,0.848 -0.114,0.2684 -0.2797,0.5117 -0.4877,0.7159 -0.208,0.2043 -0.4542,0.3657 -0.7246,0.4748 -0.2704,0.1091 -0.5596,0.1639 -0.8511,0.1613 -0.0915,0.0038 -0.1804,0.0317 -0.2576,0.0809 -0.0773,0.0491 -0.1402,0.1178 -0.1824,0.1991 -0.0324,0.0883 -0.0393,0.1838 -0.0198,0.2758 0.0194,0.092 0.0644,0.1766 0.1298,0.2442 0.4121,0.4152 0.6453,0.9751 0.65,1.56 0.0051,0.292 -0.048,0.5821 -0.1561,0.8533 -0.1082,0.2713 -0.2693,0.5183 -0.4739,0.7267 -0.2061,0.2062 -0.4509,0.3698 -0.7203,0.4814 -0.2694,0.1116 -0.5581,0.169 -0.8497,0.169 -0.2916,0 -0.5803,-0.0574 -0.8497,-0.169 C 15.5109,18.5098 15.2662,18.3462 15.06,18.14 14.9924,18.0746 14.9078,18.0296 14.8158,18.0102 14.7239,17.9907 14.6283,17.9976 14.54,18.03 14.4556,18.0787 14.3854,18.1486 14.3363,18.2328 14.2872,18.317 14.2609,18.4125 14.26,18.51 14.2526,19.0949 14.0196,19.6544 13.6097,20.0717 13.1998,20.489 12.6447,20.732 12.06,20.75 Z M 9.35001,16.54 c 0.26523,-0.0031 0.52796,0.0515 0.76999,0.16 0.3572,0.1489 0.6635,0.3982 0.8818,0.7177 0.2184,0.3195 0.3393,0.6954 0.3482,1.0823 -0.0028,0.1929 0.0699,0.3792 0.2025,0.5193 0.1327,0.1401 0.3148,0.2229 0.5075,0.2307 0.1927,-0.0152 0.3724,-0.1034 0.5025,-0.2464 0.13,-0.1431 0.2007,-0.3303 0.1975,-0.5236 0.0024,-0.3882 0.1144,-0.7679 0.3232,-1.0952 0.2088,-0.3273 0.5058,-0.589 0.8568,-0.7548 0.3652,-0.1519 0.7672,-0.1921 1.1552,-0.1156 0.388,0.0765 0.7447,0.2664 1.0248,0.5456 0.1326,0.1326 0.3125,0.2071 0.5,0.2071 0.1875,0 0.3674,-0.0745 0.5,-0.2071 0.1326,-0.1326 0.2071,-0.3125 0.2071,-0.5 0,-0.1875 -0.0745,-0.3674 -0.2071,-0.5 -0.2775,-0.2812 -0.4655,-0.6384 -0.5402,-1.0264 -0.0748,-0.388 -0.0329,-0.7894 0.1202,-1.1536 0.1577,-0.3509 0.4133,-0.6489 0.7362,-0.8582 0.3228,-0.2092 0.6991,-0.321 1.0838,-0.3218 0.1903,0.0028 0.3741,-0.0689 0.5123,-0.1996 C 19.1705,12.3696 19.2522,12.1901 19.26,12 19.2472,11.8064 19.1597,11.6253 19.0162,11.4947 18.8726,11.3642 18.684,11.2944 18.49,11.3 18.0986,11.2894 17.7179,11.1695 17.391,10.9539 17.0641,10.7383 16.804,10.4356 16.64,10.08 16.4903,9.71114 16.4513,9.30669 16.5277,8.91602 16.604,8.52535 16.7925,8.16536 17.07,7.88 17.1357,7.81434 17.1878,7.73639 17.2233,7.6506 17.2588,7.56481 17.2771,7.47286 17.2771,7.38 17.2771,7.28714 17.2588,7.19519 17.2233,7.1094 17.1878,7.02361 17.1357,6.94566 17.07,6.88 17.0043,6.81434 16.9264,6.76225 16.8406,6.72672 16.7548,6.69118 16.6629,6.67289 16.57,6.67289 c -0.0928,0 -0.1848,0.01829 -0.2706,0.05383 C 16.2136,6.76225 16.1357,6.81434 16.07,6.88 15.7889,7.14113 15.4385,7.31587 15.0608,7.38337 14.6831,7.45088 14.2939,7.4083 13.9397,7.26072 13.5855,7.11314 13.2812,6.86679 13.0632,6.55105 12.8452,6.2353 12.7226,5.86351 12.71,5.48 12.7128,5.28976 12.6412,5.10595 12.5104,4.96773 12.3797,4.82951 12.2001,4.7478 12.01,4.74 11.8164,4.75286 11.6353,4.84026 11.5047,4.98385 11.3742,5.12744 11.3044,5.31603 11.31,5.51 11.2994,5.90145 11.1795,6.28212 10.9639,6.60903 10.7483,6.93593 10.4456,7.19605 10.09,7.36 9.72115,7.50966 9.3167,7.54869 8.92603,7.47233 8.53536,7.39598 8.17537,7.20753 7.89001,6.93 7.82435,6.86434 7.7464,6.81225 7.66061,6.77672 7.57482,6.74118 7.48287,6.72289 7.39001,6.72289 7.29715,6.72289 7.2052,6.74118 7.11941,6.77672 7.03362,6.81225 6.95567,6.86434 6.89001,6.93 6.82435,6.99566 6.77226,7.07361 6.73673,7.1594 6.70119,7.24519 6.6829,7.33714 6.6829,7.43 c 0,0.09286 0.01829,0.18481 0.05383,0.2706 C 6.77226,7.78639 6.82435,7.86434 6.89001,7.93 7.16585,8.21235 7.35197,8.57002 7.42493,8.95795 7.49789,9.34588 7.45443,9.74673 7.30001,10.11 7.15113,10.4672 6.90183,10.7735 6.58234,10.9918 6.26284,11.2101 5.88687,11.3311 5.50001,11.34 5.30712,11.3372 5.12077,11.4099 4.98067,11.5425 4.84058,11.6752 4.75781,11.8572 4.75001,12.05 c 0.01524,0.1927 0.10335,0.3724 0.2464,0.5025 0.14306,0.13 0.33029,0.2006 0.5236,0.1975 0.38822,0.0024 0.76787,0.1144 1.09519,0.3232 0.32731,0.2088 0.58897,0.5058 0.75481,0.8568 0.15191,0.3652 0.19214,0.7672 0.1156,1.1552 C 7.40907,15.4732 7.2192,15.8299 6.94001,16.11 6.87435,16.1757 6.82226,16.2536 6.78673,16.3394 6.75119,16.4252 6.7329,16.5171 6.7329,16.61 c 0,0.0929 0.01829,0.1848 0.05383,0.2706 0.03553,0.0858 0.08762,0.1637 0.15328,0.2294 0.06566,0.0657 0.14361,0.1177 0.2294,0.1533 0.08579,0.0355 0.17774,0.0538 0.2706,0.0538 0.09286,0 0.18481,-0.0183 0.2706,-0.0538 0.08579,-0.0356 0.16374,-0.0876 0.2294,-0.1533 0.38009,-0.3629 0.8845,-0.5668 1.41,-0.57 z"
       fill="#000000"
       id="path828" />
  </g>
  <path
     style="fill:none;stroke:#000000;stroke-width:2.25000001;stroke-linecap:butt;stroke-linejoin:miter;stroke-miterlimit:4;stroke-dasharray:none;stroke-opacity:1"
     d="m 18.493457,10.533403 c 0,0 -0.04457,4.810264 -0.655561,5.732775 -1.404115,2.120034 -5.598897,2.819511 -5.598897,2.819511"
     id="path1033"
     sodipodi:nodetypes="csc" />
  <circle
     id="path1969"
     style="fill:#000000;stroke:#0000ff;stroke-width:0.03"
     cx="13.639851"
     cy="19.784317"
     r="0.024487097" />
  <circle
     id="path1971"
     style="fill:#000000;stroke:#0000ff;stroke-width:0.03"
     cx="13.639851"
     cy="19.784317"
     r="0.024487097" />
  <path
     style="fill:none;stroke:#000000;stroke-width:2.25000001;stroke-linecap:butt;stroke-linejoin:miter;stroke-miterlimit:4;stroke-dasharray:none;stroke-opacity:1"
     d="m 14.001638,22.429998 -3.085245,-3.283432 1.929394,-4.300719"
     id="path2043"
     sodipodi:nodetypes="ccc" />
  <g
     id="g4869"
     transform="matrix(1.2100336,0,0,1.2253853,-1.5097583,-4.7364682)">
    <rect
       style="fill:none;stroke:#000028;stroke-width:0.672507;stroke-linecap:square;stroke-miterlimit:4;stroke-dasharray:none;stroke-opacity:1"
       id="rect4530"
       width="4.6949821"
       height="5.8792419"
       x="1.6567006"
       y="16.627937" />
    <path
       style="fill:none;stroke:#000000;stroke-width:0.6;stroke-linecap:butt;stroke-linejoin:miter;stroke-miterlimit:4;stroke-dasharray:none;stroke-opacity:1"
       d="M 3.0879177,17.946588 H 4.9204656"
       id="path4689" />
    <path
       style="fill:none;stroke:#000000;stroke-width:0.6;stroke-linecap:butt;stroke-linejoin:miter;stroke-miterlimit:4;stroke-dasharray:none;stroke-opacity:1"
       d="m 3.0879176,19.108944 h 1.832548"
       id="path4689-9" />
    <path
       style="fill:none;stroke:#000000;stroke-width:0.6;stroke-linecap:butt;stroke-linejoin:miter;stroke-miterlimit:4;stroke-dasharray:none;stroke-opacity:1"
       d="m 3.0879176,20.309769 h 1.832548"
       id="path4689-9-6" />
  </g>
</svg>
