<?xml version="1.0" encoding="UTF-8" standalone="no"?>
<svg
   width="500"
   height="500"
   viewBox="0 0 15 15"
   version="1.1"
   id="svg9"
   sodipodi:docname="fontdown.svg"
   inkscape:version="1.1.2 (0a00cf5339, 2022-02-04)"
   xmlns:inkscape="http://www.inkscape.org/namespaces/inkscape"
   xmlns:sodipodi="http://sodipodi.sourceforge.net/DTD/sodipodi-0.dtd"
   xmlns="http://www.w3.org/2000/svg"
   xmlns:svg="http://www.w3.org/2000/svg"
   xmlns:rdf="http://www.w3.org/1999/02/22-rdf-syntax-ns#"
   xmlns:cc="http://creativecommons.org/ns#"
   xmlns:dc="http://purl.org/dc/elements/1.1/">
  <defs
     id="defs13" />
  <sodipodi:namedview
     id="namedview11"
     pagecolor="#ffffff"
     bordercolor="#666666"
     borderopacity="1.0"
     inkscape:pageshadow="2"
     inkscape:pageopacity="0.0"
     inkscape:pagecheckerboard="0"
     showgrid="false"
     inkscape:zoom="0.89875"
     inkscape:cx="309.87483"
     inkscape:cy="400"
     inkscape:window-width="2490"
     inkscape:window-height="1503"
     inkscape:window-x="70"
     inkscape:window-y="30"
     inkscape:window-maximized="1"
     inkscape:current-layer="svg9" />
  <!-- Uploaded to: SVG Repo, www.svgrepo.com, Generator: SVG Repo Mixer Tools -->
  <title
     id="title2">ic_fluent_font_decrease_24_regular</title>
  <desc
     id="desc4">Created with Sketch.</desc>
  <g
     id="g835"
     transform="translate(-6.750948,-3.0038125)">
    <g
       id="ðŸ”-Product-Icons"
       stroke="none"
       stroke-width="1"
       fill="none"
       fill-rule="evenodd">
      <g
         id="ic_fluent_font_decrease_24_regular"
         fill="#212121"
         fill-rule="nonzero">
        <path
           d="m 12.584698,7.2864022 0.06236,0.091953 0.05053,0.1050893 3.75,9.4967595 c 0.152131,0.385265 -0.03686,0.820911 -0.422128,0.973041 -0.35316,0.139453 -0.748652,-0.0077 -0.929294,-0.329985 L 15.052416,17.531117 14.055,15.005 h -4.11 l -0.9974157,2.526117 c -0.1394527,0.353159 -0.5171366,0.541396 -0.8758678,0.453137 l -0.097173,-0.03101 C 7.6213841,17.813792 7.4331473,17.436108 7.521406,17.077377 l 0.03101,-0.09717 3.75,-9.4967594 C 11.522867,6.9251577 12.245975,6.8594769 12.584698,7.2864022 Z M 12,9.8 10.537,13.505 h 2.926 z m 8.876677,-6.4632486 c 0.208406,0.313628 0.149808,0.7268601 -0.121766,0.9716379 l -0.08781,0.068112 -2.251008,1.4957983 C 18.196039,6.0185279 17.918028,6.0368064 17.683482,5.927135 L 17.585919,5.8722993 15.334912,4.376501 C 14.989921,4.147254 14.896092,3.6817422 15.125339,3.3367514 15.333745,3.0231233 15.737412,2.9170671 16.06828,3.0726127 L 16.16509,3.1271787 18.001,4.346 19.836927,3.1271785 c 0.344991,-0.2292469 0.810503,-0.135418 1.03975,0.2095729 z"
           id="ðŸŽ¨-Color" />
      </g>
    </g>
  </g>
  <metadata
     id="metadata830">
    <rdf:RDF>
      <cc:Work
         rdf:about="">
        <dc:title>ic_fluent_font_decrease_24_regular</dc:title>
      </cc:Work>
    </rdf:RDF>
  </metadata>
</svg>
