<?xml version="1.0" encoding="UTF-8" standalone="no"?>
<!-- Uploaded to: SVG Repo, www.svgrepo.com, Generator: SVG Repo Mixer Tools -->

<svg
   fill="#000000"
   height="800px"
   width="800px"
   version="1.1"
   id="Capa_1"
   viewBox="0 0 30.34 30.34"
   xml:space="preserve"
   xmlns="http://www.w3.org/2000/svg"
   xmlns:svg="http://www.w3.org/2000/svg"><defs
   id="defs39" />
<g
   id="g34"
   transform="matrix(0.58746094,-0.59497495,0.58824282,0.59418413,-1.5403034,15.584472)">
	<path
   d="m 22.562,12.491 c 0,0 1.227,-0.933 0.293,-1.866 -0.934,-0.933 -1.842,0.271 -1.842,0.271 l -9.389,9.391 c 0,0 -2.199,2.838 -3.871,1.122 -1.67,-1.718 1.121,-3.872 1.121,-3.872 L 21.185,5.227 c 0,0 2.873,-3.165 5.574,-0.466 2.697,2.7 -0.477,5.579 -0.477,5.579 L 12.449,24.173 c 0,0 -4.426,5.113 -8.523,1.015 -4.097,-4.098 1.066,-8.474 1.066,-8.474 L 15.494,6.209 c 0,0 1.176,-0.982 0.295,-1.866 C 14.904,3.46 13.924,4.638 13.924,4.638 L 1.873,16.689 c 0,0 -4.549,4.989 0.531,10.068 5.08,5.082 10.072,0.533 10.072,0.533 L 29.039,10.725 c 0,0 3.314,-3.655 -0.637,-7.608 C 24.451,-0.836 20.795,2.478 20.795,2.478 L 6.543,16.728 c 0,0 -3.65,2.969 -0.338,6.279 3.312,3.314 6.227,-0.39 6.227,-0.39 z"
   id="path2" />
	<g
   id="g4">
	</g>
	<g
   id="g6">
	</g>
	<g
   id="g8">
	</g>
	<g
   id="g10">
	</g>
	<g
   id="g12">
	</g>
	<g
   id="g14">
	</g>
	<g
   id="g16">
	</g>
	<g
   id="g18">
	</g>
	<g
   id="g20">
	</g>
	<g
   id="g22">
	</g>
	<g
   id="g24">
	</g>
	<g
   id="g26">
	</g>
	<g
   id="g28">
	</g>
	<g
   id="g30">
	</g>
	<g
   id="g32">
	</g>
</g>
</svg>
