<?xml version="1.0" encoding="UTF-8" standalone="no"?>
<!-- Uploaded to: SVG Repo, www.svgrepo.com, Generator: SVG Repo Mixer Tools -->

<svg
   fill="#000000"
   width="800px"
   height="800px"
   viewBox="0 0 24 24"
   version="1.1"
   id="svg4"
   sodipodi:docname="reload.svg"
   inkscape:version="1.1.2 (0a00cf5339, 2022-02-04)"
   xmlns:inkscape="http://www.inkscape.org/namespaces/inkscape"
   xmlns:sodipodi="http://sodipodi.sourceforge.net/DTD/sodipodi-0.dtd"
   xmlns="http://www.w3.org/2000/svg"
   xmlns:svg="http://www.w3.org/2000/svg">
  <defs
     id="defs8" />
  <sodipodi:namedview
     id="namedview6"
     pagecolor="#ffffff"
     bordercolor="#666666"
     borderopacity="1.0"
     inkscape:pageshadow="2"
     inkscape:pageopacity="0.0"
     inkscape:pagecheckerboard="0"
     showgrid="false"
     inkscape:zoom="0.89875"
     inkscape:cx="234.77051"
     inkscape:cy="400"
     inkscape:window-width="2490"
     inkscape:window-height="1503"
     inkscape:window-x="70"
     inkscape:window-y="30"
     inkscape:window-maximized="1"
     inkscape:current-layer="svg4" />
  <path
     d="m 5.4000096,12.000193 a 0.82499895,0.82499895 0 0 1 -1.6499979,0 A 8.2359644,8.2359644 0 0 1 17.149644,5.5701512 V 4.3755528 a 0.82499909,0.82499909 0 1 1 1.649998,0 v 3.2999957 a 0.82499893,0.82499893 0 0 1 -0.824999,0.8249989 h -3.299996 a 0.82499893,0.82499893 0 0 1 0,-1.6499978 h 1.437974 A 6.5884414,6.5884414 0 0 0 5.4000096,12.000193 Z M 19.424991,11.175194 a 0.82499893,0.82499893 0 0 0 -0.824999,0.824999 6.5884414,6.5884414 0 0 1 -10.7126106,5.149644 h 1.4371481 a 0.82499909,0.82499909 0 1 0 0,-1.649998 H 6.0245337 a 0.82499893,0.82499893 0 0 0 -0.8249989,0.824999 v 3.299995 a 0.82499895,0.82499895 0 0 0 1.6499979,0 V 18.430235 A 8.2367894,8.2367894 0 0 0 20.24999,12.000193 0.82499893,0.82499893 0 0 0 19.424991,11.175194 Z"
     id="path2"
     style="stroke-width:0.824999" />
</svg>
